<svg width="158" height="59" viewBox="0 0 158 59" fill="none" xmlns="http://www.w3.org/2000/svg">
<mask id="mask0_231_2882" style="mask-type:luminance" maskUnits="userSpaceOnUse" x="0" y="0" width="158" height="59">
<path d="M0 0H158V59H0V0Z" fill="white"/>
</mask>
<g mask="url(#mask0_231_2882)">
<mask id="mask1_231_2882" style="mask-type:luminance" maskUnits="userSpaceOnUse" x="-8" y="-89" width="175" height="244">
<path d="M166.998 -88.4115H-7.58203V154.521H166.998V-88.4115Z" fill="white"/>
</mask>
<g mask="url(#mask1_231_2882)">
<mask id="mask2_231_2882" style="mask-type:luminance" maskUnits="userSpaceOnUse" x="-4" y="-45" width="163" height="117">
<path d="M158.082 -44.1119H-3.02051V71.23H158.082V-44.1119Z" fill="white"/>
</mask>
<g mask="url(#mask2_231_2882)">
<path d="M112.873 51.6283V53.0892H110.317V54.5406H112.766V56.0015H110.317V57.4719H112.873V58.9329H108.629V51.6283H112.873Z" fill="#FF99D8"/>
<path d="M113.566 51.6283H116.216C116.93 51.6283 117.513 51.8157 117.962 52.1897C118.411 52.5645 118.636 53.1004 118.636 53.7973C118.636 54.3356 118.5 54.7862 118.228 55.1498C117.956 55.5118 117.585 55.7654 117.117 55.9122L119.669 58.9329H117.522L115.254 56.0461V58.9329H113.566V51.6283ZM115.254 54.8691H115.455C115.61 54.8691 115.741 54.8659 115.85 54.8595C115.958 54.8532 116.08 54.8332 116.216 54.7989C116.354 54.763 116.465 54.7128 116.55 54.649C116.634 54.5836 116.706 54.4887 116.767 54.3651C116.827 54.2399 116.857 54.0892 116.857 53.9122C116.857 53.7359 116.827 53.586 116.767 53.4624C116.706 53.3372 116.634 53.2423 116.55 53.1785C116.465 53.1131 116.354 53.0629 116.216 53.0286C116.08 52.9927 115.958 52.9712 115.85 52.9648C115.741 52.9584 115.61 52.9552 115.455 52.9552H115.254V54.8691Z" fill="#FF99D8"/>
<path d="M126.432 54.8403V56.4256C126.242 57.2933 125.823 57.9504 125.175 58.3969C124.527 58.8435 123.805 59.0668 123.008 59.0668C122.005 59.0668 121.153 58.6984 120.449 57.9599C119.744 57.2223 119.393 56.3299 119.393 55.2837C119.393 54.2231 119.737 53.3268 120.426 52.5947C121.114 51.8611 121.975 51.4943 123.008 51.4943C124.213 51.4943 125.166 51.9113 125.869 52.7447L124.761 53.9376C124.365 53.3124 123.813 52.9998 123.105 52.9998C122.584 52.9998 122.14 53.2231 121.771 53.6697C121.401 54.1147 121.217 54.6521 121.217 55.2837C121.217 55.9049 121.401 56.4352 121.771 56.8754C122.14 57.314 122.584 57.5325 123.105 57.5325C123.537 57.5325 123.913 57.4049 124.233 57.1497C124.554 56.8929 124.715 56.5516 124.715 56.1258H123.008V54.8403H126.432Z" fill="#FF99D8"/>
<path d="M126.568 55.2773C126.568 54.2207 126.933 53.3268 127.663 52.5947C128.396 51.8611 129.278 51.4943 130.31 51.4943C131.347 51.4943 132.228 51.8595 132.954 52.5884C133.679 53.318 134.042 54.2143 134.042 55.2773C134.042 56.3451 133.684 57.2438 132.97 57.9727C132.257 58.7023 131.37 59.0668 130.31 59.0668C129.223 59.0668 128.328 58.7055 127.624 57.9822C126.92 57.2598 126.568 56.3579 126.568 55.2773ZM128.392 55.2773C128.392 55.6601 128.451 56.0102 128.57 56.3268C128.691 56.6417 128.902 56.9089 129.202 57.1274C129.502 57.3443 129.871 57.4527 130.31 57.4527C130.939 57.4527 131.412 57.2414 131.732 56.818C132.054 56.3929 132.215 55.8794 132.215 55.2773C132.215 54.68 132.052 54.1673 131.726 53.7399C131.4 53.3124 130.927 53.0987 130.31 53.0987C129.699 53.0987 129.226 53.3124 128.891 53.7399C128.558 54.1673 128.392 54.68 128.392 55.2773Z" fill="#FF99D8"/>
<path d="M139.417 51.4943C139.819 51.4943 140.212 51.5517 140.597 51.6665C140.98 51.7813 141.266 51.8954 141.452 52.0078L141.721 52.1864L141.037 53.5134C140.983 53.4775 140.908 53.432 140.81 53.3762C140.715 53.3212 140.536 53.247 140.273 53.1529C140.009 53.0572 139.764 53.0094 139.537 53.0094C139.254 53.0094 139.036 53.0692 138.883 53.188C138.731 53.3053 138.656 53.4639 138.656 53.6633C138.656 53.7638 138.692 53.8571 138.763 53.944C138.834 54.0293 138.956 54.121 139.129 54.2183C139.304 54.3164 139.457 54.3954 139.589 54.4544C139.72 54.5118 139.924 54.6003 140.201 54.7191C140.681 54.9193 141.09 55.1928 141.429 55.5389C141.768 55.8834 141.938 56.2741 141.938 56.7095C141.938 57.129 141.861 57.4958 141.708 57.81C141.554 58.1226 141.343 58.3674 141.076 58.5436C140.81 58.7207 140.516 58.8515 140.192 58.936C139.868 59.0229 139.516 59.0668 139.139 59.0668C138.816 59.0668 138.499 59.0333 138.186 58.9679C137.875 58.9041 137.614 58.8235 137.402 58.7255C137.192 58.6282 137.004 58.5325 136.835 58.4384C136.668 58.3427 136.547 58.2629 136.469 58.1992L136.353 58.1003L137.198 56.7C137.269 56.7598 137.367 56.8355 137.493 56.9264C137.62 57.0181 137.844 57.1417 138.164 57.2964C138.485 57.4496 138.769 57.5261 139.016 57.5261C139.728 57.5261 140.085 57.2869 140.085 56.8084C140.085 56.7087 140.059 56.6162 140.007 56.5309C139.957 56.444 139.868 56.3579 139.738 56.2725C139.608 56.188 139.493 56.1194 139.395 56.0684C139.297 56.0174 139.136 55.9408 138.912 55.8387C138.687 55.7351 138.521 55.6561 138.413 55.6027C137.961 55.3858 137.613 55.1139 137.367 54.7861C137.122 54.4568 137 54.1035 137 53.7271C137 53.0724 137.245 52.5365 137.736 52.1195C138.228 51.7032 138.789 51.4943 139.417 51.4943Z" fill="#FF99D8"/>
<path d="M148.152 51.6283V56.3396C148.152 57.2375 147.906 57.9169 147.414 58.3778C146.921 58.8372 146.201 59.0668 145.253 59.0668C144.307 59.0668 143.588 58.8372 143.095 58.3778C142.604 57.9169 142.36 57.2375 142.36 56.3396V51.6283H144.051V55.8515C144.051 56.4432 144.145 56.8531 144.333 57.0828C144.522 57.3125 144.83 57.4273 145.256 57.4273C145.681 57.4273 145.988 57.3125 146.176 57.0828C146.366 56.8531 146.461 56.4432 146.461 55.8515V51.6283H148.152Z" fill="#FF99D8"/>
<path d="M154.995 58.9329L154.645 54.6043H154.6L153.08 58.8882H152.073L150.55 54.6043H150.508L150.155 58.9329H148.464L149.131 51.6283H150.929L152.575 55.842L154.221 51.6283H156.019L156.686 58.9329H154.995Z" fill="#FF99D8"/>
<mask id="mask3_231_2882" style="mask-type:luminance" maskUnits="userSpaceOnUse" x="-3" y="-45" width="162" height="117">
<path d="M-2.8584 -44.0298H158.076V71.1519H-2.8584V-44.0298Z" fill="white"/>
</mask>
<g mask="url(#mask3_231_2882)">
<mask id="mask4_231_2882" style="mask-type:luminance" maskUnits="userSpaceOnUse" x="-4" y="-45" width="163" height="117">
<path d="M158.082 -44.1119H-3.02051V71.23H158.082V-44.1119Z" fill="white"/>
</mask>
<g mask="url(#mask4_231_2882)">
<path d="M21.8985 21.0983C20.1167 21.8663 18.6961 23.0872 17.6383 24.7602C16.5798 26.4316 15.7156 28.2833 15.0466 30.3136C14.3792 32.3423 13.7102 34.2896 13.0412 36.154C12.3739 38.0193 11.5251 39.5543 10.4948 40.7601C9.46462 41.9674 8.08533 42.5719 6.35777 42.5719C4.6861 42.5719 3.36269 42.146 2.38917 41.296C1.41483 40.4451 0.718302 39.3614 0.299574 38.0456C-0.117534 36.7298 -0.325684 35.304 -0.325684 33.7681C-0.325684 31.9037 0.050119 30.0935 0.801724 28.3391C1.55333 26.5832 2.62566 25.06 4.01872 23.7714C5.41179 22.4827 6.99923 21.6199 8.78105 21.1813C10.396 20.7969 11.7883 20.0968 12.957 19.0824C14.1273 18.0681 15.2418 16.9859 16.3003 15.8352C17.3581 14.6829 18.4717 13.6813 19.6404 12.8305C20.8108 11.9804 22.2038 11.5546 23.8196 11.5546C25.4346 11.5546 26.869 11.994 28.1219 12.8719C29.3765 13.7507 30.4351 14.848 31.2968 16.1638C32.1602 17.4804 32.8146 18.852 33.2601 20.2786C33.7071 21.7036 33.9307 22.9915 33.9307 24.1414C33.9307 26.0066 34.2498 27.7347 34.8896 29.3248C35.5311 30.9157 37.0213 32.0672 39.3604 32.7793C40.1419 33.001 40.8668 33.3853 41.5342 33.934C42.2032 34.481 42.5385 35.1931 42.5385 36.0711C42.5385 37.3877 41.9813 38.4834 40.8668 39.3598C39.7524 40.2377 38.5545 40.6771 37.274 40.6771C34.7098 40.6771 32.5781 40.0328 30.8789 38.7441C29.1813 37.4555 27.789 35.7968 26.7029 33.7681C25.616 31.7394 24.7114 29.6015 23.9881 27.3535C23.264 25.1039 22.5675 23.0186 21.8985 21.0983Z" fill="#2200d8"/>
<path d="M45.1284 41.0886C42.6209 40.9243 40.656 40.1843 39.2354 38.8685C37.8164 37.5527 37.1069 35.9339 37.1069 34.0137C37.1069 32.8637 37.3572 31.6843 37.8585 30.4762C39.3051 27.1317 41.2545 24.2394 43.7062 21.8C46.157 19.3591 49.2768 17.7267 53.0656 16.9037C54.18 16.6294 55.2524 16.3416 56.2826 16.0393C57.3128 15.7379 58.3009 15.1478 59.2469 14.269C60.9744 12.6789 62.7012 11.8831 64.4271 11.8831C65.71 11.8831 66.8933 12.3639 67.9778 13.3248C69.0639 14.2842 69.8026 15.7235 70.1938 17.6438C70.4724 19.0154 70.8482 20.2913 71.3212 21.4715C71.7942 22.6501 72.6721 23.6493 73.955 24.4699C74.6224 24.9101 75.2064 25.4188 75.7077 25.9946C76.2082 26.5687 76.4593 27.2402 76.4593 28.0073C76.4593 29.3789 76.0268 30.4491 75.1634 31.2162C74.3017 31.9842 73.2715 32.5193 72.0728 32.8207C70.8757 33.1229 69.7767 33.2736 68.7748 33.2736C67.7138 33.2736 66.6828 33.1508 65.6809 32.9036C64.6782 32.6572 63.7047 32.1779 62.7587 31.465C61.7544 30.6979 60.8068 30.3135 59.9175 30.3135C58.5803 30.3135 57.41 31.1907 56.4057 32.9451C55.6816 34.2066 54.7065 35.481 53.4803 36.7696C52.2557 38.0583 51.0027 39.1277 49.7222 39.9785C48.4409 40.8286 47.2714 41.2544 46.2137 41.2544C45.9351 41.2544 45.573 41.1986 45.1284 41.0886Z" fill="#2200d8"/>
<path d="M107.291 0.119263C108.127 0.340952 109.032 0.588158 110.006 0.862478C110.982 1.1352 111.818 1.54509 112.513 2.09373C113.211 2.64237 113.56 3.46533 113.56 4.56261C113.56 5.54984 113.071 6.31698 112.095 6.86562C111.121 7.41426 110.216 7.99081 109.381 8.59447C108.488 9.25157 107.513 9.59447 106.455 9.62158C105.397 9.64949 104.366 9.71887 103.365 9.82891C100.969 9.99319 99.0331 10.3768 97.5558 10.9804C96.0801 11.5825 94.8968 12.5011 94.0051 13.7364C93.115 14.97 92.3351 16.6566 91.6661 18.7953C91.1647 20.4947 90.7468 22.1813 90.4123 23.8543C90.0794 25.5281 89.885 27.2419 89.8292 28.9962C89.7725 30.6421 89.1594 32.0823 87.989 33.3152C86.8203 34.5488 85.4564 35.1652 83.8973 35.1652C83.0048 35.1652 82.0296 34.8909 80.9719 34.3423C79.9133 33.7936 78.9665 33.0951 78.1307 32.2466C77.2948 31.3965 76.7652 30.505 76.5432 29.5736C76.3205 28.804 76.195 28.0225 76.1674 27.2291C76.1391 26.434 76.1253 25.6518 76.1253 24.8814C76.1253 24.2802 76.1391 23.6773 76.1674 23.0728C76.195 22.4692 76.2096 21.8926 76.2096 21.344C76.2096 20.3025 76.1529 19.2603 76.0411 18.218C75.9309 17.1765 75.7082 16.1343 75.3737 15.092C75.2636 14.8735 75.2085 14.5171 75.2085 14.0235C75.2085 12.7077 75.9318 11.4461 77.3791 10.2404C78.828 9.03307 80.5831 7.84009 82.6436 6.66147C84.704 5.48126 86.5976 4.37042 88.3259 3.32817C89.4939 2.61605 90.7047 1.99963 91.9576 1.4781C93.2122 0.957374 94.5639 0.696611 96.0137 0.696611C96.6811 0.696611 97.3485 0.765988 98.0158 0.903945C98.6848 1.04031 99.3538 1.10809 100.021 1.10809C101.247 1.10809 102.459 0.998841 103.656 0.779544C104.855 0.561045 106.066 0.340952 107.291 0.119263Z" fill="#2200d8"/>
<path d="M137.705 0.119263C138.54 0.340952 139.445 0.588158 140.419 0.862478C141.395 1.1352 142.231 1.54509 142.927 2.09373C143.624 2.64237 143.973 3.46533 143.973 4.56261C143.973 5.54984 143.485 6.31698 142.509 6.86562C141.535 7.41426 140.63 7.99081 139.794 8.59447C138.902 9.25157 137.927 9.59447 136.869 9.62158C135.81 9.64949 134.78 9.71887 133.778 9.82891C131.382 9.99319 129.447 10.3768 127.969 10.9804C126.494 11.5825 125.31 12.5011 124.419 13.7364C123.529 14.97 122.749 16.6566 122.08 18.7953C121.578 20.4947 121.16 22.1813 120.826 23.8543C120.493 25.5281 120.299 27.2419 120.243 28.9962C120.186 30.6421 119.573 32.0823 118.403 33.3152C117.234 34.5488 115.87 35.1652 114.311 35.1652C113.418 35.1652 112.443 34.8909 111.385 34.3423C110.327 33.7936 109.38 33.0951 108.544 32.2466C107.708 31.3965 107.179 30.505 106.957 29.5736C106.734 28.804 106.609 28.0225 106.581 27.2291C106.553 26.434 106.539 25.6518 106.539 24.8814C106.539 24.2802 106.553 23.6773 106.581 23.0728C106.609 22.4692 106.623 21.8926 106.623 21.344C106.623 20.3025 106.566 19.2603 106.455 18.218C106.345 17.1765 106.122 16.1343 105.787 15.092C105.677 14.8735 105.622 14.5171 105.622 14.0235C105.622 12.7077 106.345 11.4461 107.793 10.2404C109.242 9.03307 110.997 7.84009 113.057 6.66147C115.118 5.48126 117.011 4.37042 118.74 3.32817C119.907 2.61605 121.118 1.99963 122.371 1.4781C123.626 0.957374 124.978 0.696611 126.427 0.696611C127.095 0.696611 127.762 0.765988 128.429 0.903945C129.098 1.04031 129.767 1.10809 130.435 1.10809C131.661 1.10809 132.873 0.998841 134.07 0.779544C135.268 0.561045 136.48 0.340952 137.705 0.119263Z" fill="#2200d8"/>
<path d="M148.651 15.6694C150.379 15.6694 151.924 16.1503 153.287 17.1112C154.652 18.0705 155.753 19.3177 156.589 20.8528C157.424 22.3887 157.842 24.0059 157.842 25.7044C157.786 27.6247 157.215 29.3942 156.129 31.0122C155.042 32.631 153.635 33.9332 151.907 34.9197C150.181 35.9069 148.289 36.3997 146.228 36.3997C143.109 36.3997 140.631 35.564 138.793 33.8926C136.955 32.2195 136.036 30.1478 136.036 27.6789C136.036 23.2922 137.08 20.1941 139.169 18.3839C141.257 16.5745 144.418 15.6694 148.651 15.6694Z" fill="#2200d8"/>
</g>
</g>
</g>
</g>
</g>
</svg>
