<svg width="260" height="212" fill="none" xmlns="http://www.w3.org/2000/svg"><mask id="a" style="mask-type:luminance" maskUnits="userSpaceOnUse" x="0" y="0" width="260" height="212"><path d="M0 0h259.6v211.6H0V0Z" fill="#fff"/></mask><g mask="url(#a)"><path d="m98 47.7-.3-.2-.2-.4v-1c-.1-.2 0-.4.2-.5l1.5-.6.5-.4c1-1.2 2-1.5 3.5-1 .2.1.5 0 .5-.3l.2-.8.5-.7 9.3-6.4c.2-.1.4 0 .5.1l.3.6c.5.8 1.5.7 1.9-.2a4 4 0 0 1 2.2-2.2h.6c.8.4 1.5.3 2.2-.1.3-.3.7.1.6.5l-.4 1c0 .3.1.5.3.4.3 0 .5-.1.6-.3.1-.2.2-.4.1-.6l-.3-3.9c0-.2-.1-.5-.3-.6l-.3-.6c0-.9.3-1.3 1-1.2.2 0 .3-.1.3-.3 0-.9-.4-1.4-1-1.6-.4-.1-.4-.7 0-.8l.8-.2c.4-.2.5-.8.1-1l-.8-.9a.9.9 0 0 1-.1-.6c.2-1.5-1.6-2.2-.2-3.8 0-.2.3-.2.4 0h.1v.1c-.3-.5-.7-1.3-1-2.4-.3-.6 0-1.4.6-1.7.2 0 .3-.2.4-.5 0-.1 0-.3-.2-.2h-.2c0 .1 0 .1 0 0-.3-.4-.3-.8 0-1.3a1 1 0 0 0 0-.8c-.4-.6-.4-1.2-.2-1.9.1-.2 0-.5-.1-.7-.4-.6-.4-1.2 0-1.8 0-.2.1-.5 0-.8v-.5l1-6.3c0-.1.2-.2.3-.1l.4.7c0 .2.1.4.3.5a3 3 0 0 0 2 .1c.1 0 .2-.3.1-.5-.3-.5-.8-.6-1.3-.5V.3l4.7.6c.2 0 .3.3.3.5l-.1 2.9c-.5 3.5-.5 7.3-.2 11.2.2 2 .1 4.2-.3 6.4v1.5c.3 1.4.3 3-.1 5v.3c0 .7 0 1.8-.3 3.1 0 .5 0 .8.3 1 .2.2.4.2.7.2h.7c2 .9 3.7 1.4 5.2 1.5.2 0 .4.1.5.3.3.4 1 .6 2 .6a11.4 11.4 0 0 1 5.7 2l2.8.4.6.3c1 1.2 1.8.4 2.6.5l4.9.5c.3 0 .9.3 1.6.7.3.2.4.6.2.9a2 2 0 0 0-.4 1.4c0 .2.3.4.5.3.5-.3.7-.6.6-1-.3-.8.7-1.5 1.4-.8a4 4 0 0 0 2.5 1.3c2.2.2 3 .8 4.1 2.3a1 1 0 0 0 1.7-.1c1.2-1.7 2.5-1.9 4-.6h.3l.2-.2v-.1l-1.9-1.5a.5.5 0 0 0-.7 0c-.4.3-.7.4-.8.3-.3-.6 0-1.4.4-1.4l.4.2c.2.1.3 0 .4-.1v-.5c0-.1 0-.2-.2-.3h-.2a.4.4 0 0 1-.3-.5l1-3.6c0-.2.1-.3.3-.3l.8.1c.2 0 .3-.2.2-.4-.2-.4-.5-.6-.8-.6 0 0-.2-.1-.1-.3l1.4-4.1c0-.2.1-.3.3-.4.4-.2.5-.6.2-1a1 1 0 0 1-.2-.8l3.5-12.3v-.3c-.1-.5 0-1 .4-1.5l.2-.3.5-2c.3-1 1.6-1 1.9 0v.3c0 .2 0 .4.2.5.6.3 1.2.1 1.7-.6 0-.1.3-.1.4 0 .3.2.4.4.3.8v.3h.3l.1-.1c.3-.8.7-1 1.3-.6.3.2.5.6.4 1-1 4.8-2 9.5-3.8 13.9l-.3.9c-.3 2-1 3.8-1.8 5.5l-.5 1.7c-.5 2.5-2 4.8-2.9 7.2-.1.3-.5.2-.6-.1 0-.8-.4-1-1.3-.8-.3.1-.4.6-.1.7.4.3.6.7.6 1.2 0 .2.2.3.3.2h.3c.1 0 .2.2.1.3-.2.5-.6.6-1 .5-.2 0-.3 0-.3.2-.1.1-.1.3 0 .4h.2l.4.3s.1.2 0 .4c0 .5-.5.8-1.2.7 0 0-.2 0-.2.2 0 .1 0 .2.2.3.8.3 1.5.8 2 1.5l.6.3c.4 0 .8.3 1 .7l.6.2 1 .1c4.6 1.7 8.4 6 12 8a38.7 38.7 0 0 1 5.4 3.6 39.5 39.5 0 0 1 15 12.7c.2.2.4.2.6 0 .3-.3.5-.8.4-1.4l.2-.4c.2 0 .3 0 .4.2.1.4.3.6.6.8.2 0 .5-.1.5-.4.1-.7 0-1.2-.4-1.5-.7-.4-.8-1.4-.4-2 .7-1.3 1.1-2.4 1.3-3.5 0-.3.2-.5.3-.8.4-.5.7-1 .9-1.6.3-1 .7-1 1.3-1.8.1-.2.2-.5.1-.7a3.2 3.2 0 0 1 1-3.5c.3-.3.4-.9.2-1.6 0-.4.2-.8.6-.7l.7.1.4-.3c0-.5 0-.8-.3-1a.8.8 0 0 1-.3-.7c.1-1.2.7-1.8 2-1.9.5 0 .7-.7.3-1-.3-.3-.4-.6-.5-1.1 0-.3 0-.5.2-.6l2-3 .2-.5c.4-1.6 1-3.1 2-4.5.1-.2.3-.3.5-.2l5.5 1c.3 0 .5.4.4.7L227 49l-.1.3c-1.3 2.2-1.8 5-3.6 7.2l-.4.6a29.1 29.1 0 0 1-3.4 6.6l-3.1 7.4c-.5 1.2-1.1 1.7-1.8 1.6-.2 0-.4.1-.4.3l.1.5c.3.1.4.5.3.7-.4.9-1 1.7-2 2.7v.7A248.4 248.4 0 0 0 228.5 90c1.2 1 2.5 1.6 3.6 2.5 2.6 2.4 5.2 4.6 8 6.6 3.4 2.4 6.3 4.8 9.5 7l.6.6 3.7 4 .4.6c1.3 2.2 3 4 4.8 5.7 1 .7 1 1.6.4 2.7a9 9 0 0 1-2.4 2.7l-.6.6c-.9 1.4-1.6 2.6-3 2.6a52.8 52.8 0 0 0-8.8 5.7c-2.4 2-4.4 3.6-5.8 4.4-4.5 2.8-9 6-13.5 9.9-.4.4-.6 1-.4 1.6.6 1.6.9 3.4.8 5v.8c.9 3.6 2.3 7 4.4 10.3 1.1 1.7 1.2 3.7.7 5.8l-1 5.1c0 .3-.3.5-.6.5-1.2-.3-2.7-.4-3.7-1.2-.3-.2-.6-.2-1 0-.5.3-1 0-1.1-.6l-.3-4c0-.2-.2-.4-.3-.3h-.7a5.7 5.7 0 0 1-1.5-3.2c-.2-1.3-1-2-1.3-3.3-.4-1.9-.4-4-.2-6.6 0-.8 0-2.3-.3-4.5v-.6c.3 0 .6 0 1 .2l.3-.1.1-.2c.2-.2.1-.4 0-.5-1-.4-1.7-.5-2.3-.2a47.9 47.9 0 0 0-8.5 5.1c-.7 1-1.3 1.5-1.7 1.6-1.7.6-3.4 1.4-5 1.8a23 23 0 0 0-9.8 5.5c-.4.4-1 .4-1.7 0-.2 0-.3 0-.3.2a86 86 0 0 0 1.6 8.9c.2 1 .2 2 0 3 0 .4 0 .6.2.8l.1.3v.1l1.3 7.5v.4c1.2 3 1.8 6.4 2 10 0 1-.3 2.2-1 4a4 4 0 0 0-.3 1l-.1 1.3c0 .7-.8 1.1-1.4.8-1.6-.8-3-1.3-4-1.3-.7 0-1.3-.5-1.4-1.2-.5-2.5-.6-4.4-.3-5.7 0-.3 0-.6-.2-.7-.8-.6-1.2-1.5-1.2-2.8 0-.2 0-.4-.2-.6-.4-.7-.6-1.5-.4-2.3 0-.3.2-.5.4-.6l.2-.2c.2-.1.2-.3.1-.5 0-.1-.2-.2-.4-.1h-.7a.6.6 0 0 1-.3-.6v-6l-.1-.5-.2-.7c0-1.8-.2-3.6-.7-5.2-.2-.8 0-1.4.6-1.8.2 0 .3-.3.3-.6a1 1 0 0 0-.4-.8.3.3 0 0 1 0-.5c.2-.2 0-.8-.5-2-.3-.4-.8-.6-1.2-.3l-4.8 2.5c-2 1-4.7 1.3-7 2h-1c-1.6.1-3 .4-4 1-1.6 1-3 1.5-4.3 1.6-.3 0-.5.1-.6.3l-.2.8c0 .4-.3.7-.6.8h-.3c-.3 0-.5.4-.3.7 0 .2.3.3.6.4.3.1.5.5.5.9l-.6 7.4c.5 3.2.3 4.9 0 8.3-.2 1.5-.3 3.1-.3 5a52 52 0 0 1-2 12.1c0 .4-.5.7-.8.5l-2.6-1.4c-.1 0-.1-.2 0-.2.6-.2.7-.5.5-1-.4-.6-1.3-.5-1.7.2v.3c.1.2 0 .4-.2.5-.3.1-.7 0-1-.3a.7.7 0 0 1 0-.5c.1-3.8.2-8.1 1.2-12 .3-1.1 0-2.2.3-3.2.3-1.3.4-2.5.4-3.7a59.4 59.4 0 0 1 2.1-15l-1.1-.7h-.5a7.1 7.1 0 0 1-4.7 1.4H141.8a33.8 33.8 0 0 1-14.5 1l-2.6.5c-.2 0-.3.2-.3.4-.2 3.5-.6 7.2-1.4 11a83.4 83.4 0 0 0-1.5 14l-1.7 8-.2.2-5.7-1.4-.1-.3.2-10c0-.4.3-.7.6-.5h.6c.2-.1.3-.4.2-.6a.8.8 0 0 0-.6-.4c-.3 0-.4-.4-.4-.6l2.1-10.2.3-.3c.2-.2.4-.2.5-.2.2 0 .3.4.2.5-.4.4-.6.8-.5 1 0 .3.2.4.4.3.5-.4.6-1 .3-1.6-.1-.2 0-.5.2-.6l.6-.6v-.2l-.1-.2h-.2l-1 .7c-.1 0-.3 0-.3-.3l.3-1.6c0-.2.2-.3.3-.3.6-.2 1-.8 1.3-1.7 0-.2-.1-.3-.3-.2-.2.2-.4.5-.5 1 0 .2-.2.3-.3.3l-.2-.1-.1-.3 1-4.8c0-.3-.3-.6-.6-.5l-.9.3h-.3l-3.9-.2h-.2l-1 .5h-.2l-3.6-.2c-2.8-.6-5.6-.9-8.4-.7h-.9c-3.3-1-7-1.5-10.8-2-.8-.1-1.4 0-2 .2l-.4.5c-1 6.3-3 12.1-4 17.8a154.8 154.8 0 0 1-4.5 17c-.1.2-.3.3-.5.2l-5.4-2.3a.4.4 0 0 1-.2-.4c0-.7.1-1.6.4-2.6l.6-.9c.1-.2.2-.5 0-.8v-.9l3-13a57.3 57.3 0 0 1 2.2-7.2c0-.9.3-1.7.7-2.4l.1-.3 1-4.2c0-.1.1-.2.2 0 .6.5 1.1.6 1.5.4.2-.2.2-.6-.1-.7-.8-.1-1-.6-1-1.3.2-.4 0-.7-.4-.7-2.6 0-8.5-1-17.7-3-2.2-.5-4-1.1-5.6-2-.2 0-.4-.2-.6-.1-3.5 0-8.2-.6-11.1-2.8a1 1 0 0 0-.7-.2c-2.7.5-5.2.3-7.6-.7-.6-.2-1.2 0-1.4.7l-3.2 9a557.5 557.5 0 0 1-9.3 25.3c-.4.6-.6 1.6-.5 2.9 0 .7-.6 1.2-1.2.9-1-.6-1.4-.5-2.3-1.4-.3-.2-.7-.4-1.3-.4-.3 0-.4-.5-.1-.6l.5-.2c.4-.2.3-.9-.1-1-.8 0-1.2.2-1.3.8 0 .2-.3.4-.5.4-.3 0-.4-.3-.4-.6v-2l.2-.5.6-2.4c0-.2 0-.4.2-.6l3.5-10c.7-2.2 1.8-4.2 2.5-6.5.2-1 .6-1.5 1.1-1.6.2 0 .4-.2.4-.5v-1.8l4.2-10.1c.1-.3.4-.4.6-.4l.6-.1c.5-.5.3-1.3-.3-1.5a71 71 0 0 0-5.5-1.6c-1.5-.3-3.3-1-5.3-2a131 131 0 0 1-7.3-3.5c-1.2-.7-2.9-1-4.3-1.7-.3-.1-.6-.3-.8-.6l-4.2-4.6c-.8-1-.8-2.5 0-3.4l3.7-3.8c.8-1.4 2-2 3-3a51.6 51.6 0 0 1 3.6-4.5l.5-1.1.2-.4c.9-.9 1.3-2 1.8-2.7l3-4.7c1.4-2.3 3.9-4.6 7.4-7l1-.8c2.9-3.2 6.2-6.2 9-9 1.5-1.7 3-3.2 4.6-4.7 1.1-1 2.3-2.8 4-3.7l.4-.3 9.8-9.9 4.7-5.7c.2-.3 0-.7-.3-.6h-1.1c-.4 0-.6-.3-.7-.8-.3-1.4-1-2.7-2.1-3.9a1 1 0 0 1-.3-.6v-1.2c-.1-.3-.4-.4-.6-.2-.4.4-1 .3-1.7-.2-.3-.2-.7-.8-1.2-1.6-1-2-2.3-3-3.2-5.3 0-.1.1-.3.3-.3 1.3.3 2 .8 2.2 1.4.1.3.5.4.6.1l.1-.2v-.4l-2.6-3.3a.3.3 0 0 0-.5 0l-.9 1.2c0 .3-.4.4-.5.1l-2-3.6c-.1-.1 0-.3 0-.4l1.3-.7.4-.6c0-.3 0-.6-.3-.5-1 .3-1.6 1-2 2.2 0 .1-.2.2-.3.1-.4-.1-.6-.4-.7-.7a.9.9 0 0 1 0-.8c.6-1 .4-1.9-.7-2.8-.3-.3-.3-.8 0-1.4.3-.4.1-1-.3-1-.1-.1-.2 0-.3.1-.7 1-.8 2-.3 3v.3h-.3a5 5 0 0 1-1.2-2v-.4l.5-3.8c.2-1 1.1-1.5 2-1a3 3 0 0 0 2.1.2c.3 0 .4.3.2.5l-.4.4c-.2.3-.3.6-.1 1 .2.2.5.3.8.1.4-.2.7-.7.8-1.4 0-.2.3-.3.5-.1 1.2 1.7 2.5 3 4 4 .3.1.4.6.3 1-.3.7-.7 1.1-1.3 1.1-.2 0-.2.3 0 .4.2.1.6.2 1.3.2.2 0 .3-.2.3-.4l.1-.9c.2-.4.7-.5.9-.1 1.7 2.5 4.2 3.4 5.3 6.4l.2.4 2.5 2.7.3.3a13 13 0 0 1 3.9 4.3c.1.3 0 .6-.4.6l-.4.2c0 .2.1.4.3.4.7 0 1.1.7 1.2 2.1 0 .4.5.7.8.4l3.4-3a9 9 0 0 1 2.3-2l9.4-10c.3-.4.7-.7 1.2-.9 1.3-.6 2.3-1.2 2.9-1.6 1-.8 1.3-2.2 2.7-2.8.2 0 .4-.2.5-.4.4-.7 1-1.3 1.7-1.8 1.7-1 3.1-2.3 4.4-3.8 0-.1 0-.4-.2-.4-1.3-.1-2.2-1.2-2.8-3.2-.2-.8-.2-1.3 0-1.7l.2-1c0-.2-.2-.4-.3-.5l-1.4-1.7-.3-.1h-.7a.6.6 0 0 1-.4-.3l-1.5-2c-.1-.1 0-.4.2-.3 2.2 1 4 .2 5.1-2.2v-.3l-.2-.1H90c-.6 1.2-1.6 2-3 2.6-.1 0-.3 0-.4-.2-.1-.5-.4-.7-1-.8-1.5-.3-1.7-1.3-2.1-3-.1-.1 0-.3.2-.2.5.3 1-.2 1.8-1.4.4-.6 0-1.2-.5-1.2h-3a.5.5 0 0 1-.5-.3l-2-3.6a1 1 0 0 0-.3-.3c-.4-.2-.6-.4-.7-.7 0-.4 0-.7.3-.9l.6-.2c.2 0 .3-.3.1-.5-.4-.5-.6-1.2-.3-2l.6-3.2c0-.4.4-.6.8-.6l5.3 1 .4.3c.4.7.4 1.6 0 2.8 0 .4.3.6.6.4.3-.6 1-.6 1.3 0a41 41 0 0 1 2 4.8c.5 1.4.8 3.2 1.6 4.7.4.7.3 1.3.6 2 0 .2.2.4.4.5.6.5 1 .9 1.3 1.7l1.5 5.6c.1.3 0 .6-.3.7-.3.2-.5.4-.4.9 0 .2.2.4.4.5h.2l.2.2c.3.5.8.9 1.3 1l.4.5.2 1c.2.1.4 0 .4-.3-.1-.5 0-.8.2-.9.2 0 .2-.4 0-.5ZM126.3 5c-.1-1.5-.9-2.3-2.2-2.4-.2 0-.3 0-.4-.2-.2-.2-.5-.2-.6 0h-.1l-.4 1.9c0 .2 0 .4.3.5.2 0 .4-.1.4-.3.2-1 .8-1.4 1.8-1 .2 0 .3.1.4.3.3.9.5 1.3.6 1.3l.2-.1Zm-1.7.7c-.3 0-.5.3-.5.7l.1.2.6-.6c.1-.1 0-.4-.2-.3Zm-1 1.8c0 .2.2.3.3.3l.3-.1v-.5c0-.2-.3-.2-.4-.1-.2 0-.2.2-.2.4Zm3 1.4c0-.2 0-.3-.2-.3-.1 0-.3.1-.3.3l.3.3.2-.3Zm-2.3 1.1c.1 0 .2 0 .3-.2v-.3h-.3s-.2.1-.2.3c0 .1 0 .2.2.2Zm-1 1.4c0 .1 0 .4.2.7.1.2.4.4.5.3.1-.1 0-.4-.1-.7-.2-.2-.5-.4-.6-.3Zm.9 1.9c-.1.1-.2.3 0 .5 0 .2.3.2.4 0v-.3c0-.2-.2-.4-.4-.2Zm3.1 1h-.3v.5c.2.1.4 0 .4-.1v-.3Zm-5 1.2.1.6h.3v-.6c-.2-.1-.3-.1-.4 0Zm1.3 2.1.1.5c.1.2.4 0 .4-.1l-.2-.5c0-.2-.3 0-.3.1Zm2.3 1.8-.6.2c-.2.3-.4.5-.3.7.1 0 .4 0 .6-.3.3-.2.4-.5.3-.6Zm49.6 1.3v.1c.3.3.6.8.7 1.5.1.4.6.5.8.1.2-.6.3-1 .2-1.2a.6.6 0 0 0-.7-.4 2 2 0 0 1-1 0ZM79.8 26c.3.1.7-.8 1.2-2.8l.4-.7.1-.4c0-.3-.1-.5-.4-.6-.3 0-.5 0-.7.3v1.2c-.7 2-.9 3-.6 3Zm43-3.5c-.3.6.3 1.1.8.7l.3-.4c.1-.2 0-.5-.2-.5-.5-.1-.8 0-1 .2Zm4 1.2V23c-.2-.2-.5-.2-.6 0 0 .2 0 .4.2.6h.3Zm.6 1.7c0 .1.2.3.5.4.4 0 .7 0 .7-.2 0-.1-.2-.3-.6-.4-.3 0-.6 0-.6.2Zm46.8 3c.7-.3 1.1-1.1 1.3-2.2 0-.2-.1-.4-.3-.3-.1 0-.2.4-.2 1 0 .4-.2.6-.5.8l-2 1-.2.6.7 1c.1.3.4.2.4 0l.4-1.3c0-.3.2-.4.3-.5Zm-48.8-1c0 .7-.2 1.3-.7 1.8v.3s.1.2.3.1l.2-.1c.6-1 .7-1.8.5-2.2 0-.2-.3-.1-.3 0Zm-44.3 2.9.1-2v-.1H81l-.3.1c0 .7 0 1.4.2 2h.2Zm41.7-1.3c0 1 .5 2 1.2 3 .3.2.7.2.9-.1.3-.4.8-.6 1.4-.5.3.1.6-.1.5-.5v-.6c0-.2-.2-.2-.3 0l-.6.6h-.6c-.5-.2-1-.3-1.4-.2-.2 0-.4 0-.4-.3-.1-1-.3-1.4-.4-1.6 0 0-.3 0-.3.2Zm3 4.5c-.1.2.2.7 1 1.3.1.1.3.1.4 0 .2 0 .3-.2.4-.4v-.7c0-.1-.1-.3-.3-.3-1-.2-1.4-.1-1.5 0Zm-2.1.6c0 .2.2.5.5.8 0 0 .1.1.2 0 .2 0 .3-.4.2-.8-.1-.2-.3-.4-.6-.4-.2 0-.3.2-.3.4ZM89 35.4V35c-.2 0-.4.2-.3.3 0 .1.1.2.2.1h.1Zm2.3 1 .2-.6c0-.2-.3-.3-.5-.3l-.4.2c-.1.2 0 .4.1.5.2.1.4.2.6.1Zm-6.5.3c-.1.2.1.4.5.6.3 0 .7 0 .7-.2 0-.3-.2-.5-.5-.6-.4-.2-.7 0-.7.2Zm56.3.5c-.1.3.2.6.5.7.5.2.8.1 1-.1 0-.3-.3-.6-.7-.8-.4-.1-.8 0-.8.2Zm-49.4.2v1.4c0 .2.1.4.4.5h.3c.2 0 .3-.2.3-.4l-.8-1.6c0-.1-.2 0-.2 0Zm78.5.3c-.2 0-.3.1-.4.4v.6c.2 0 .4-.2.4-.4v-.6Zm-42.7 1.4.4.2c.2 0 .4-.3.3-.6 0-.2-.2-.4-.4-.4-.1 0-.3 0-.4.3-.1.2 0 .4.1.5Zm-6.7 3.6c.5.1.8 0 .8-.6 0-1.1 0-1.7-.4-1.8-.3 0-.6.4-1 1.5-.1.5 0 .8.6 1Zm-27.2-1.9c0-.3-.5-.4-.6-.1-.3.4-.3.8 0 1.1l1.1 2c.2.4.4.4.7 0v-.5c-.7-.8-1-1.6-1.2-2.5Zm15 .8.4-.9c0-.2-.2-.3-.3-.2-.4.3-.6.6-.6 1 0 .3.4.4.6 0Zm-2.9 2c.1.3.4.3.8.3.3 0 .5-.2.6-.4.2-.2.2-.5 0-.8-.1-.3-.3-.4-.6-.4-.2 0-.4.2-.6.5-.2.4-.3.6-.2.8Zm119.8-.1c-.7.2-1.5.1-2.3-.3h-.9c-.2.2-.3.5-.3 1 0 .1.2.3.4.3 1 .1 1.7.6 2.1 1.4.1.2.4.2.5 0 .5-.6.8-1.3.9-2 0-.3-.2-.5-.4-.4Zm-135.3.3c0 .2.4.5.9.7.5.1 1 .1 1-.1s-.3-.5-.8-.7c-.6-.2-1-.1-1 .1Zm33.9 1.2.5-.1c.3-.2.4-.6 0-.9-.3-.3-.6-.5-.8-.4-.3.1-.5.5-.4.8 0 .4.3.7.7.6Zm43.5.4.5-1.2c.1-.2-.1-.5-.3-.3-.5.3-.7.8-.6 1.4.3 1.5 1 2 2.4 1.7l.3-.5c0-.6 0-1.1-.2-1.7-.1-.3-.6-.3-.7 0-.2.8-.6 1.1-1.2 1-.2 0-.3-.1-.2-.4Zm-65.4-1c-.1-.3-.5-.6-.8-.5-.4 0-.7.4-.6.8 0 .4.4.6.8.5.3 0 .6-.4.6-.8Zm-12.7 2c.2.5.5.6 1 .2l1.3-.8v-.2l-.1-.2-1.5.1c-.6 0-.8.3-.7.9Zm132.3 3.3c0-.3-.2-.5-.2-.5-.2-.1-.3 0-.3.2l.3.5c.1.1.3 0 .2-.2ZM135.1 63c.5-.9.8-1.3.9-1.3.2 0 .5-.2.6-.4l2.8-5 .1-.1 1.6-1.6c.5-.4.5-1 1-1.6h.3l3.3 2.9c.4.3.5.8.3 1.3l-1.5 3.7-.5.5c-.7.2-1 .6-1.1 1.2 0 .2.2.3.3.2l1.7-1.6c.3-.7.8-1.3 1.4-1.9a6 6 0 0 0 2-3c0-.3.2-.5.4-.6.6-.4 1-.9 1.4-1.4.5-.8-.1-2-1-1.9h-1.2c-.4.1-.7 0-1-.2l-2-1.4a.7.7 0 0 0-.6-.1c-1 .2-1.6 0-2-.7-.1-.2-.3-.3-.5-.2l-2.3 1.2-.3.3-4.6 11.4c-.1.1 0 .3 0 .4l.5-.1Zm-5.2-6.9c-.1-.6.1-1 .7-1.1.4-.1.7-.4.8-.8.2-.7.7-1 1.4-1s1-1 .6-1.4a2 2 0 0 0-2-.7h-.5a52 52 0 0 0-5.2-.3c-.8 0-1.4.6-2 1.7-3 7.2-6 14.6-8.7 22-2.2 6.3-3.8 10.4-4.6 12.5a411.3 411.3 0 0 0-5.1 13.5c-.1.2-.2.4-.1.7 0 .7 0 1.3-.3 2a51 51 0 0 0-1.8 5.3h.4a15 15 0 0 1 2.3-4.8c.3-.4 1-.7 2.3-1h.2v-.5c0-.2-.2-.4-.3-.3l-1 .8c-.2.3-.7.1-.7-.3-.1-.8.2-1.5.8-2 .2-.2.3-.4.3-.7.2-1 .4-2 .8-2.6 1-1.6 1-3.4 2.3-5 .1-.2.3-.3.5-.3.3.1.6 0 .8-.3l-.1-.6c-.6-.5-.7-1.2-.3-2a54.8 54.8 0 0 1 3.4-6.6 19.4 19.4 0 0 1 4.2-8.7l4.3-7.6c.2-.3.5-.5.7-.4h.5c.2 0 .4 0 .5-.2v-.5c-.5-.4-.5-1.2 0-1.7.7-.8 1.4-1.9 2.2-3.1.3-.5.8-1 1.4-1.3.2 0 .3-.3.3-.5 0-1 .1-1.6.7-1.7.2 0 .3-.3.3-.5Zm-11.7-3.5c-.2.1 0 .6.3 1 .3.5.7.7.9.6.1-.2 0-.7-.3-1.1-.4-.5-.8-.7-1-.5Zm-2.3 1-2.5.1c-1 .1-2 .8-2.4 1.8a73.3 73.3 0 0 0-3.5 8.4c-1.4 4.2-4 9.9-5.5 14a410.3 410.3 0 0 1-6.2 16.9c0 1.3-.6 2.3-1.5 3v.3c.5.2.6.9.3 2a65.9 65.9 0 0 1-2 6.3h.5a13 13 0 0 0 1.3-3.9c0-.4.2-.7.4-1a12 12 0 0 0 1.5-4c.1-.5.5-.9 1-.9h.8c.3 0 .3-.2.3-.4l-.1-.1h-.4c-.2 0-.4-.2-.4-.4-.2-2 1-3.8 2-5.3.2-.2.2-.4.2-.7-.2-2.2 1.5-5.2 2.5-7 0-.2.3-.2.4 0 .2.4.7.8 1.6 1.3.2 0 .3-.1.3-.3 0-.1-.3-.6-.9-1.2a.5.5 0 0 1 0-.6l.1-.6c0-.1 0-.2-.3-.3a.6.6 0 0 1-.3-.3V80l3.2-6.7c.5-1.2.5-3.2 2.3-2.8.3.1.6-.2.4-.5-.5-1.2-.7-2.3.6-3 .5-.1 1-.5 1.3-1 .1-.1 0-.4-.1-.4l-.6-.2a.9.9 0 0 1 0-1.1l2.5-3 .3-.7c.1-1 .5-1.4 1.2-1.1.2 0 .4-.1.4-.4.2-.6-.3-1.1.1-2l1.5-3c.1-.3 0-.6-.3-.6Zm-25.2 1.7.2-.6c0-.3-.2-.5-.4-.5-.2-.1-.5-.1-.8 0-.2 0-.2.3 0 .5l.4.6c.2.2.4.2.6 0Zm9.3-.4c-.1 0-.3.1-.5.4-.2.3-.2.6 0 .7 0 0 .3-.1.4-.4.2-.3.2-.6.1-.7Zm17.9 0c-.1 0-.3 0-.5.2v.5c.1.2.3 0 .5-.1V55Zm34.5 2v-1.7c-.2-.2-.3-.3-.5-.3-.3.1-.3.3-.3.6v.1l.8 1.3Zm-5.2 20.7-.3-.6c-.1-.3-.5-.2-.6 0 0 1.1-.1 1.7-.3 2v.2l.3-.1c.1-.5.4-.8.8-1h.4v.5c-.5.4-.6.9-.6 1.5 0 .3.4.5.6.2.3-.3.7-.5 1.3-.6.2 0 .3 0 .4.3 0 .6 0 1-.2 1.1-.2.2-.3.3-.6.3-.2 0-.4 0-.6-.2-.3-.1-.7.3-.4.6.6 1 1.3 1.3 2.2.8.3-.1.6.2.5.5l-3 8.7-.1.2-.6.3c0 .1-.1.3 0 .4v.3c.1.2.2.4.1.7-.4 1.9-1.5 4-2 5.4-1.3 4.4-2.7 8.2-4 11.4-.6 1.3-.8 2.8-1.4 4.2-2.3 5-3.8 10.4-5.2 13.5l-2.4 7.4c-.1.5.3.9.7.6l1.2-1.1c.4-.4.7-1 .8-1.5.6-2.3 1.2-4.2 1.9-5.7l.5-1.6c.5-2 1.2-4 2.2-5.9l.2-.9c.1-1.8.8-3 2.1-3.8.4-.2.6-.7.5-1.3a5 5 0 0 1 .6-3.8l.2-.6a18 18 0 0 1 1.7-4.6c.2-.2.3-.5.3-.8.2-1 .5-2 1.1-2.5.4-.3.6-.8.6-1.2.3-2.1.6-3.5 1-4a24.1 24.1 0 0 0 2.8-6.6c.8-1.4 1.4-2.9 1.7-4.5 0-.3.3-.6.5-.7l3-1.6c.2-.1.4 0 .5.2v.3c.2.6.9.8 1.2.3l.1-.3c.2-.2 0-.7-.3-.7h-.7a.5.5 0 0 1-.4-.3c0-.3-.3-.6-.7-.9-.1 0-.3.1-.2.3l.3.5c0 .1 0 .3-.2.3l-1.2-.3c-.6-.2-.6-1.2 0-1.3l1.7-.6c.2 0 .3 0 .4.2 0 .2.2.3.4.4.2.1.4 0 .5-.2l.2-1.5c0-.2 0-.5.2-.6l.7-.7v-.3c0-.2-.2-.3-.4-.3s-.3-.2-.1-.3h.5l.4-.3.5-1.6c0-.2 0-.5-.3-.5-.2 0-.4 0-.6-.2-.2-.1-.2-.6 0-.6l1.4-.5c.1 0 .2-.2.1-.3l.1-.8v-.6a4 4 0 0 1-.3-1.4v-.1h-.2c-.2 0-.2-.2-.2-.4l.3-.6c.1-.2.2-.4 0-.6v-1c0-.1.2-.4.5-.6l.8-.8c.2-.1.2-.4.2-.6l.1-1 .4-.2 1.5-.4c.6-.2.8-1 .3-1.6-.2-.2-.7-.2-1.3 0h-.1v-.5c1.3-.2 1.8-1 1.6-2.3 0-.2.3-.5.5-.4l.3.2c.3 0 .5-.2.4-.5-.3-1-.9-1.7-1.7-1.8a8 8 0 0 1-4.3-2 .8.8 0 0 0-.5-.3l-1.2-.2c-.3 0-.6.1-.7.4v.3c-.2.4 0 .8.4.9.3 0 .6.2.9.4.3.3.4.8.2 1.2-.9 2 .9 3.8-1.4 5.6l-.2.6v.4c.2.3.2.6 0 .7-.1.2-.3.4-.6.4-.2 0-.3.2-.2.4 0 .1 0 .3.2.4.2.2.2.3.2.5l-.3 1.4c0 .4-.4.7-.8.6-.3 0-.6-.4-.6-.8 0-1-.5-1.8-1.4-2a.6.6 0 0 1-.5-.4c-.1-.6 0-1 .5-1.3l.4-.5v-.3l.1-.1h.4c0 .2.1.3 0 .4v.3c-.1.3.1.5.4.5l1-.4c.4-.1.5-.5.3-.8-.7-.9-1-1.6-.7-2 .2-.3.4-.5.7-.5.8.2 1.3-.4 1.4-1.7l-.1-.5c-.2-.4-.4-.7-.4-1-.1-.5-.7-.6-1-.2-.8 1-1.6 2.3-2.4 3.6-.4.5-.4 1-.1 1.5.1.4-.2.7-1.1 1-.3 0-.5.4-.4.8l.3 1.3c0 .2 0 .5-.2.6-.7.4-1.1.8-1.2 1.1a53 53 0 0 1-2.4 7.4v.7c.3.4.4.9.2 1.5ZM221 56c0-.1-.4 0-.7.3-.2.3-.3.7-.2.8.1.2.5 0 .7-.3.3-.3.4-.7.2-.8Zm-105.7 1.8c0 .2.2.3.4.3.4-.2.6-.6.5-1.1 0-.2-.3-.3-.4-.2-.3.4-.5.7-.5 1Zm33.5-.6c-.3 0-.5.2-.5.4 0 .5.5.6.8.3.1 0 .1-.2 0-.4a.8.8 0 0 0-.3-.3Zm69.3.3c-.2.1-.2.3 0 .5 0 .2.2.3.3.3.1-.1.2-.3 0-.5 0-.2-.2-.4-.3-.3Zm-173.2.3c-.3.1-.4.6-.3 1 .2.5.6.8.9.6.3 0 .5-.6.3-1-.1-.5-.5-.8-.9-.6Zm73.2 1s-.3-.2-.7-.1c-.3 0-.6.2-.6.4 0 .1.3.2.7.2.3 0 .6-.2.6-.4Zm96.3 0c-.3.2-.1.8.3 1.4.5.6 1 1 1.3.7.3-.3.1-1-.3-1.5-.5-.6-1-1-1.3-.7Zm-95.5 0c-.2.2-.2.5-.1.7 0 .2.3.4.5.3l.2-.1c.1-.3.1-.6-.1-.7-.2-.2-.4-.2-.5-.1Zm30.4.4.6.8c.3.2.7-.3.5-.6a1 1 0 0 0-1-.6c-.1 0-.2.3-.1.4Zm14.6 6.5h.2c.1 0 .2.2.1.4-.2.6 0 1 .3 1.4l.4-.1 2.6-3.7c.2-.1.2-.4.2-.6 0-.7.2-1.3 1-1.8.2-.1.3-.5.2-.9 0-.3-.4-.5-.7-.4-1.3.2-2.5.2-2.6 2.2 0 .2-.3.3-.4.2l-.3-.4c-.1-.2-.4-.1-.5 0-.6 1-.9 1.8-.9 2.8 0 .2 0 .4-.2.5l-1.4.8c-.2.1-.3.4-.2.6 0 .3.3.4.5.3h.6c.2.2.3.5 0 .8l.1.2h.2l.2-.1c.4-.7.6-1.4.6-2.2Zm-71.2 6.2c0 .3.4.3.5 0l4-6.9c0-.2.4-.3.6-.2.3.1.6 0 .8-.2v-1.2c-.2-.7.6-1.2 1.1-.7.3.4.6.5.9.5.2 0 .4-.3.5-.8l.7-1.7c.1-.2 0-.4-.2-.3-1.4.5-2.7 1.1-3.9 1.8a5 5 0 0 1-2 .2c-.2 0-.4.2-.4.5v.8a67.4 67.4 0 0 0-2.6 8.2Zm126-10.2.5.8c.1.2.3.2.4 0 .4-.7.5-1.2.4-1.4-.1-.3-.5-.4-1.2-.6-.2 0-.4.1-.3.4 0 0 0 .3.3.8ZM50.8 64c.3.2.6.3 1.2.3.2 0 .3-.2.2-.4-.1-.4-.3-.6-.5-.9l-.9-.5c-.2 0-.3.1-.3.3 0 .6.2 1 .4 1.2Zm125 8.3c-1.1-1.5.7-3.3 2-4.6 0-.2.3-.2.5-.2l3.2.8c.8.2 1.3 1.1 1.1 2l-.3 1.6c0 .3.1.5.3.6h.3c.2 0 .4-.1.3-.3l.1-2.2c.5-1.2 1.2-1.7 2.1-1.6.4 0 .6-.6.3-.8-3-2-6.4-3.7-10.2-4.9-.2 0-.5 0-.6.3l-8.4 20.5v.3h.4c.7-1 .8-2 1.7-3 .7-.8 1.4-1.7 2-2.7.5-.9 1-1 1.8-1.2l.2-.3c-.2-1.2 0-2.2.6-3 .1-.2.4-.3.6-.3.4.2 1 0 1.9-.6 0-.1.1-.3 0-.4Zm38.6-9.4c-.2.2-.2.6 0 .8.2.3.5.3.7.2.2-.2.2-.6 0-.8-.2-.3-.5-.3-.7-.2ZM48.7 65.6l-.1-.6c-.2-.4-.7-.5-1-.2-.3.3-.4.5-.3.8.2.8 1.3.8 1.4 0Zm165-.4c-.2 0-.5.3-.6.8 0 .6.1 1 .4 1 .3.1.5-.3.6-.8.1-.5 0-1-.3-1Zm-80.4.7c-.1 0-.3.2-.4.6 0 .4 0 .7.2.7.1 0 .3-.2.4-.6 0-.4 0-.7-.2-.7Zm81.4 2.4-.7-.8c0-.2-.3 0-.3.1l.7.9c.1.1.3 0 .3-.2Zm-48.6-.8c-.5.5-1.1.8-2 1l-.1.2c0 .5.1.6.4.5a9 9 0 0 1 1.7-.6c.3-.1.5-.4.5-.8 0-.3-.3-.4-.5-.3Zm-67.1 1c-.1-.4-.5-.6-.9-.5l-1.8.7c-.3.2-.5.6-.4 1l.1.3c.1.4.5.6.9.5l1.8-.7c.3-.2.5-.6.4-1l-.1-.3Zm63 .3c0-.3-.2-.6-.5-.6s-.6.3-.6.6c0 .4.3.6.6.6s.5-.2.5-.6Zm16.5-.3c-.1 0-.2.4 0 .7 0 .2.3.4.5.3.2-.1.2-.4 0-.7 0-.3-.3-.4-.5-.3Zm32.9.4c-.1.2.3.7.9 1 .6.3 1.1.3 1.2 0 .1-.2-.3-.7-.9-1-.5-.3-1.1-.3-1.2 0Zm-80.9-.1c-.2 0-.4.2-.4.5s.1.6.4.6c.2 0 .4-.3.4-.6 0-.2-.2-.5-.4-.5Zm-77.6.6c-.5.3-.3 1 .2 1.2l.8-.1c.4-.1.6-.7.2-1-.5-.3-1-.4-1.2-.1Zm162.3.2c.1.5.2.7.3.7.4.4 1-.2.7-.7l-.8-.3c-.2 0-.3.1-.2.3Zm-55.9.2.2.6.3.3h1c.2 0 .3-.3.2-.4l-1.2-.9c-.2-.1-.5.1-.5.4Zm-108 .7c0-.2-.3-.4-.5-.3-.3.1-.4.3-.3.6 0 .2.2.3.5.2.2 0 .3-.3.3-.5Zm162.8.7h-2c-.2 0-.4.1-.4.4v.7c.4.4.7.5 1 .3l1.4-.8c.2-.2.2-.5 0-.6Zm-113.7.3c-.2-.2-.6.3-.9 1-.2.6-.2 1.2.1 1.3.3.2.7-.3 1-1 .2-.6.1-1.2-.2-1.3Zm-16 .2c-.3-.2-.8 0-1.1.5-.3.5-.4 1.1-.2 1.3.3.2.7 0 1-.5.4-.5.5-1 .2-1.3Zm48 1.2c.6-.3.5-1.2 0-1.3-.4-.1-.6 0-.8.5-.1.3 0 .6.2.7.3.1.5.2.6 0Zm32-.4c.1.6.9.7 1.1.2V72c0-.3-.2-.4-.4-.3-.5.2-.7.4-.7.7Zm-4 0c.2 0 .4.1.5.3v.4l-.3 1c0 .2.2.4.4.4.5-.1 1 0 1.3.6l-.1.6-1.3 1.2v.3c.8.1 1.4-.2 1.9-1 .6-.9.2-2-.6-2.1-.4 0-.5-.3-.4-1 0-.3 0-.6-.3-.8-.3-.2-.7-.3-1-.2h-.1v.3Zm17.7.8a2 2 0 0 0-.6-.7c-.3-.2-.6.2-.4.6l.8.4.2-.3Zm-60 70.2v.7c0 .2-.3.3-.5.2l-1.4-.4h-.6a4 4 0 0 1-3.7-1.4.7.7 0 0 0-.5-.2h-.7a1 1 0 0 1-.4 0c-2.6-1-5.2-1.8-7.6-3-1.4-.8-2.8-1.4-4-1.9l-4-1.7a82.2 82.2 0 0 1-8.1-5.6c-1-.7-1.7-1.8-2.5-2.7l-.6-.3c-1-.3-1.7-1-2.3-1.7-.2-.2-.3-.4-.5-.4-.9-.3-1.4-1-1.6-2 0-.2-.2-.4-.3-.5l-6.4-7-.2-.4-1.8-2.9v-.1l-2.3-4.6c-.2-.2-.3-.4-.6-.5-1.8-1.1-3.3-5.8-4-7.7l-.2-1-.2-5.3c.2-1.5.6-2.2 1.4-2.3.5 0 .9-.1 1-.4.4-.3.5-.6.4-1 0-.5-.5-.5-.6-.2-.4.8-1 1.1-1.8 1-.2-.1-.5 0-.6.1-1.2 1.3-2.5 2.1-3.6 3.5-2 2.8-4.2 5-6.4 7.7-1 1.2-2 1.3-3.3.4-.3-.2-.8 0-.7.5 0 1 .5 1.3 1.2 1.2.3-.1.5.3.3.5a129.7 129.7 0 0 1-9.6 8.8c-6.8 7-13 14.5-20 20.6-2 1.8-3.7 3.5-5.2 5.3l-4.8 5.7c-.2.3 0 .7.2.8 1.2.4 2.3 1 3 1.8.4.3.8.5 1.3.5 1.7.2 3.3.9 4.8 2h.3l1.3-.3c.2 0 .4.1.5.4l.1.2c.1.2.3.4.6.4 1.7 0 2.6.1 2.8.2a67.9 67.9 0 0 0 15.9 4c4.4.6 8.6 2.9 13 3 1.4 0 2.9.3 4.5 1.1l.4.2c4.5.8 7.7 1.5 9.7 2 4.5 1 8.4 1.4 13.2 2.5 3.3.8 6 1 8.4.9.2 0 .4 0 .6.2l.4.5.5.2c2-.3 3.9.3 5.5.2a46 46 0 0 1 9.4 1c1.8-.3 3.4.1 5.2-.2.6-.2 1.2 0 1.8.3.2.2.5.2.8.2l2.6-.7h.2l3.6.5 1-.1c1.5-.5 2.9-.6 4.3-.4l.4-.1a2 2 0 0 1 1.3-.3c3.6.5 7.3.3 11.2-.5 1.5-.4 3.3 0 5-.8.3-.2.6-.2.8 0 .3.2.4.5.4 1h.1c.2 0 .3 0 .3-.2l.3-.3c3.6-.8 7-1.3 10.5-1.2.2 0 .4-.1.5-.3l.4-.4c.2-.2.4-.1.5 0 .2.4.4.6.6.7.3.1.5.1.8 0a33 33 0 0 0 6.9-2.7 273 273 0 0 0 6-1l4.6-1.3c.3 0 .6-.2.8-.3l5-2.6h.2c.6-.7 1.2-1 1.8-1 2.7-.1 4.8-.6 6.2-1.3l6.2-4c1-.8 2.8-1.2 5.3-1.5l.6-.3 1.3-1.1.2-.2c2-.9 3.7-1.9 5-3 3.4-2.6 6.1-3.8 9.3-4.5l.6-.3a200.2 200.2 0 0 0 13.3-9.8c2.1-.9 3.6-2.6 5.5-3.6.8-.5 2.6-2.2 4.5-2.6.2 0 .3-.2.4-.4l1-1.7v-.1c.4-.3.7-.2 1 .2h-.1v.3c-.1 0 0 .2 0 .2.3.1.6 0 .8-.1.2-.2.3-.5.2-.8-.3-.8 0-1.4.5-1.7.3-.1.4-.6 0-.8-3.3-1.8-6.7-3.6-9.6-6.3a206 206 0 0 1-6.2-6 42 42 0 0 0-4.2-3.7c-2.7-2-6.2-4.3-8.2-6.8-.6-.7-1.7-1.8-3.3-3a16 16 0 0 1-3-3.4 1 1 0 0 0-.5-.4c-1.2-.3-2-1.5-3-2.2a41 41 0 0 1-7.4-6.8c-2.1-2.3-4.7-4-7.4-5.9-.3-.2-.6.1-.6.5.4 2 .1 4.1-.1 8.2 0 .2 0 .4-.2.7a15 15 0 0 0-.5 5.5l-.1.5-2.4 4.9c-.2 1.1-.5 2.2-1 3.1-2 4.3-4.2 9-7.1 13.5-2 3-4.4 7-7.3 11.8-2.3 4-5.2 8.4-7.3 11-1.6 2-4 3.5-7 4.5v.1l-4.8 2.7-.2.2c-2.5 3.2-5.3 3.2-9 3.4l-.7.1c-1.5.5-3.1.6-4.4 1A37.3 37.3 0 0 1 128 146c-1.5-.5-3-.2-4.6-.6-1-.4-2.5-.6-4.3-.8-.5 0-.7-.3-.7-1l-.1-.1h-.2ZM92 73.7l-.2 1.7c0 .1 0 .3.2.4.2 0 .4 0 .4-.2.5-.8.5-1.5.2-2-.2-.3-.5-.2-.6.1Zm100.2 0c0-.3-.5-.4-1-.4-.4.1-.7.4-.7.7 0 .3.4.5.9.4.5-.1.8-.4.8-.7Zm11.9.7h.8l.3-.6c0-.2-.2-.4-.3-.3l-1 .5c0 .1 0 .4.2.4Zm4 2.3c-.2.3 0 .8.4.6.4-.1.6-.6.7-1.3 0-.4.4-.6.8-.4.8.5 1.8.2 2.9-1 .2-.1.1-.5-.1-.6l-.7-.2c-.5-.1-1 0-1.3.3l-2.6 2.6Zm-119.4-2v-.5c-.2-.3-.5-.3-.6-.1l-.2.6c0 .2 0 .4.3.4s.4 0 .5-.3Zm-28.7 0-.5 1.9c0 .2.1.3.3.2.6-.7.9-1.4.7-2-.1-.3-.5-.3-.5 0Zm19 .3c-.3.5-.7 1.1-1.5 1.9-.2.2-.2.5 0 .7 1 1.2 1.2 2.3.6 3.2-.5.9-.5 1-.6 2 0 .3-.2.5-.4.5s-.5-.1-.7-.3c-.1 0-.3 0-.2.2l.2 1.7c0 .3 0 .6-.3.7-1 .4-1.3 1.1-1 2 0 .4 0 .7-.3 1h-.2c-.1.3-.4.2-.5 0l-.3-.9c0-.2-.3-.3-.5-.2-.3.1-.5 0-.6-.2V87l.8-.7c.2-.1.2-.4.1-.6-.3-.7-.8-1.3-1.3-1.7-.2-.1-.1-.4 0-.4 1.1.2 1.7.7 1.9 1.6 0 .2.3.4.5.3.2-.2.4-.4.4-.7 0-.3 0-.7-.3-1-.5-.8-.8-1.6-1-2.6 0-.3-.5-.4-.7-.2-.9 1.2-2 1.7-2.5 3-.2.5-.5 1-1.1 1.7-.4.5 0 1.2.5 1.1l1.5-.3c.2 0 .3.2.2.3-.3.5-.3.9 0 1.2l-.1.5c-.2.1-.4.4-.4.8 0 .1 0 .3.2.3l.3.2c.3 0 .4-.2.3-.4-.2-.5-.2-.8-.1-1 .2-.1.4-.2.6 0 1 .6 2.2 1.1 3.6 1.4.2 0 .3-.1.3-.3 0-1.1-.3-1.7-.9-1.7-.2 0-.2-.3-.1-.4 1.3-1.2 2-2.4 2-3.3l.1-.4 2.4-4.5.2-.3c.7-.5 1-1.2 1-2.2-.1-.9-1-1.4-1.4-.7a3 3 0 0 0-.3 1.4c0 .2-.3.4-.5.3-.3-.2-.5-.3-.5-.5s0-.4.3-.7c.5-.5.6-1 .5-1.4 0-.2-.2-.2-.2 0Zm-7.7.2c-.2 0-.4 0-.4.3 0 .7-.4 1.3-.9 1.8-.2.2-.1.5 0 .6l.3.2c.2.2.6 0 .7-.3l.7-2.1c0-.2 0-.4-.2-.5h-.2Zm103.6.3c0-.2-.3-.2-.5 0s-.3.5-.1.6c0 .2.3.2.5 0s.3-.4.1-.6Zm-10.8 1c-.2 0-.2.6.1 1 .3.5.7.7 1 .5.2-.2.1-.7-.2-1.1-.3-.5-.7-.7-.9-.5Zm-25.6.7c0 .4-.1.6-.2.6 0 .3.3.4.4.2.2-.2.2-.5.1-.8 0-.1-.2-.2-.3 0Zm-54.7 3.4c-.2.1-.2.5 0 .5l2 .3c.4 0 .8-.3.7-.8 0-.2-.2-.4-.5-.6a.7.7 0 0 1-.4-.4c-.2-.5-.4-.9-.8-1-.4-.1-.6.3-.3.6l.5.6c.2.1.1.4 0 .5l-1.2.3Zm79.1-1V80.2c1.1.5 1.7.6 1.8.4.1-.2-.3-.6-1.3-1.3h-.2l-.3.3Zm9 .7c.3.2.7.2 1 0 .3-.2 0-.8-.5-.8h-.6c-.2.2-.2.6 0 .8Zm-112.6.9c-.2-.2-.6-.1-1 .2-.3.3-.4.7-.3 1 .1.1.5 0 .9-.3.3-.3.5-.7.4-1Zm128 .8c-.3 0-.5 0-.7.3v.7c0 .2.3.2.5 0 .1-.1.3-.3.3-.6 0-.2 0-.3-.2-.4Zm5 .3c-.1 0-.4.1-.5.5-.1.4 0 .8.2.8.2.1.4-.1.5-.5.2-.4 0-.7-.1-.8ZM143.7 87c.8 0 1.3.4 1.5 1.3 0 .2.2.4.4.3h.2c.3 0 .4-.4.3-.6l-.3-.5a.8.8 0 0 1-.1-.6l.2-.7c0-.3-.1-.6-.4-.7h-.5c-.2-.1-.3-.4-.1-.5l1.4-1.2c.2-.2.1-.6-.1-.7l-.5-.2a.9.9 0 0 0-1 .3c-.8.8-1.2 2-1.4 3.4 0 .2.2.4.4.4Zm67-3.4-.5.8c0 .2.1.4.3.5.2 0 .5-.2.6-.4l.2-.6c0-.4-.4-.5-.5-.3Zm-85.7.5c-.3.2-.3.7 0 1 .2.3.5.5.8.3.2-.2.2-.6 0-1-.2-.3-.6-.4-.8-.3Zm61.3.5c.3.4.5.5.8.5.2 0 .4-.3.3-.5 0-.3-.2-.5-.5-.6-.3 0-.5.1-.6.4v.2Zm-121.1-.3c-.2.2-.2.6 0 .9.3.3.6.3.8.2.2-.2.2-.6 0-1-.3-.2-.6-.3-.8-.1Zm22.2 1c0 .3.4.5 1.1.5.6 0 .8-.3.8-.8s-.4-.7-1-.5c-.6.2-1 .4-.9.8Zm67-.4c-.3.4.1.9.5.6.2 0 .3-.2.3-.2 0-.3-.1-.6-.4-.6l-.5.2Zm-68.2.4c0-.2-.4-.4-.7-.3-.3 0-.5.4-.4.7 0 .3.4.5.7.4.3-.1.5-.5.4-.8Zm106 .3c0-.2-.1-.4-.3-.4-.1 0-.3.2-.3.4s.2.3.3.3c.2 0 .3-.1.3-.3Zm-129.7.9c-.3-.2-.5-.2-.8 0-.3.2-.2.7.1.7.4.1.6 0 .8-.4v-.3ZM57 87.7c-.1-.3-.7-.3-1.3 0-.6.3-1 .8-.8 1.1.1.3.7.3 1.3 0 .5-.2.9-.7.8-1Zm87.5 1.1c-.2-.4-.6-.5-1.2-.4-.2 0-.4.2-.5.4l-.1.2c-.1.3 0 .6.3.7l3.8 1c.2 0 .3 0 .4-.3 0-.2 0-.4-.2-.4-.8-.6-1.6-1-2.3-1l-.2-.2Zm40.9-.5c-.2 0-.3.5-.3.9.1.4.3.7.5.7s.3-.4.3-.8c-.1-.5-.3-.8-.5-.8Zm-71.6 1.1c-.1.1 0 .7.3 1.3.4.5.8.9 1 .7.2-.1 0-.7-.3-1.2-.4-.6-.8-1-1-.8Zm13 1.4.7.1c.2 0 .4-.2.4-.4-.1-.7-.4-1.1-.8-1.2-.5-.1-.9.2-1.2.8 0 .2 0 .5.2.5l.7.2Zm94.4-1.6c-.3-.1-.6.1-.8.5-.2.4-.1.8.1 1 .3.1.7 0 .8-.5.2-.4.2-.8-.1-1ZM73.7 91l.2-.3c.2-.2.1-.4 0-.6-.2-.2-.6-.3-1-.1l-.3.3-.7 1.7c-.1.2-.3.4-.6.4l-2.6-.3-.1.2v.3c.1.2.3.3.5.2.8-.5 1.8-.4 2.9.4.2.1.3.4.3.7l-.4 2.5c.1.2.2.3.4.2l.1-.2-.1-.9c0-.3 0-.7.2-1 .4-.7.6-1.5.6-2.2 0-.5.3-1 .6-1.3Zm153.7.3c.2.2.5.2 1 .2.2 0 .4-.2.3-.4l-.6-.7-.7-.5c-.2 0-.4.1-.3.4 0 .5.2.9.3 1Zm-149.2.1c-.4-.4-.8-.5-1.2-.1-.1 0-.2.1-.2.3v.2c-.2.2 0 .5.1.5.5 0 1.2-.2 2.2-.7.1 0 .3-.2.3-.4v-.6c.1-.5-.4-.8-.9-.6-.2.1-.3.5-.1 1.3 0 .2-.2.3-.2.1Zm57 .2c.7-.1 1-.3 1.2-.6.3-.7-.6-1.3-1.1-.8-.3.3-.5.6-.4 1 0 .3.1.5.3.4Zm7.5 1.7-1-2.3h-.1c-.6.3-.8 1-.5 1.7v.1c.3.7 1 1 1.5.7 0 0 .1-.1 0-.2ZM83 91.7c-.1.2 0 .6.3 1 .3.2.7.3.9.1.1-.2 0-.6-.3-1-.3-.2-.7-.3-.9-.1Zm42.1 0c-.2-.2-.6 0-.7.3-.2.9 0 1.3.8 1.2.4-.1.7-.6.5-1l-.6-.5Zm38.6.8-.5.8c-.1.2 0 .4.2.4.6 0 .9-.2 1-.3.2-.3.2-.6 0-.8a.5.5 0 0 0-.7-.1Zm13.9-.1c-.2 0-.2.3 0 .4 0 .2.3.2.4 0 .2 0 .1-.3 0-.4-.2-.1-.3 0-.4 0Zm41.4.3-.1-.3c-.2 0-.3 0-.3.2l.2.3s.2 0 .2-.2Zm-104 1c0 .3.5.6 1 .6.4 0 .8-.3.8-.6 0-.4-.3-.7-.8-.7s-.9.3-1 .6Zm40.9 2.6c0 .2.1.2.2 0 .3-.6.3-1.3.1-2l-.3-.6c-.6-.5-1.2-.8-1.9-.7-.3 0-.4.6 0 .7 1.2.5 1.8 1.4 1.9 2.6Zm-106-1.6v-1.1c0-.2-.1-.4-.3-.3h-.2c-.2 0-.3.2-.3.4-.2.6 0 1.1.4 1.3.2.1.5 0 .5-.3Zm53.7 2c-.1.1 0 .2.1.2 1-.7 1.2-1.7.7-3.1-.1-.2-.3-.3-.5-.2-.1 0-.3.2-.2.4.1 1.3 0 2.2-.1 2.7Zm16-1.9c-.4-.1-.9.2-1 .9-.2.6 0 1.2.4 1.3.4.2.8-.2 1-.8.2-.6 0-1.2-.4-1.4Zm2.7 1c-.2-.2-.5-.2-.7 0-.3.2-.4.6-.2.8 0 .2.4.1.6 0 .3-.3.4-.6.3-.8Zm17.3 1.8-.5.1c-.1.2 0 .5.2.5.6-.1 1.2 0 1.7.2.6.2 1.2-.6.8-1.2-.3-.6-.8-1-1.6-1-.2 0-.4.2-.3.4l.1.3c.2.3 0 .7-.4.7Zm-70.5.3c.2.2.4.3.7.2.2 0 .2-.2.1-.3a10.2 10.2 0 0 0-.9-1s-.3 0-.3.2c0 .4.1.7.4.9Zm10-1.4c-.4 0-.8.4-1 1 0 .7.2 1.3.7 1.4.4.1.9-.3 1-1 .1-.7-.2-1.3-.6-1.4Zm32.1.2c-.3 0-.5.5-.4 1 0 .5.4.9.8.8.3 0 .5-.5.4-1 0-.6-.4-.9-.8-.8Zm64.8-.1c-.2 0-.4.2-.4.6 0 .4 0 .7.3.7.2 0 .3-.3.4-.6 0-.4-.1-.7-.3-.7Zm-28.1 0c-.3.2-.5.7-.3 1.2s.6.7.9.6c.3-.1.4-.6.2-1.1-.1-.5-.5-.8-.8-.7Zm-72.8 2 .5-.3c.2-.2.2-.6 0-.7-.6-.3-1-.3-1 0-.3.4 0 1 .5 1Zm92.7.3c0-.3.3-.4 1-.4.2 0 .4-.3.3-.5l-.1-.3c-.1-.2-.3-.3-.5-.2-.8.2-1.3.7-1.6 1.3-.1.2 0 .5.2.5h.2c.3 0 .5-.1.5-.4Zm-50 0c-.1.1 0 .4.1.4h1.3c.4 0 .7 0 .9-.3.4-.6-.4-1.4-1-1-.3.1-.6.4-1.3 1Zm-69.2-.1c0-.3-.2-.6-.5-.6s-.5.3-.5.6.2.5.5.5.5-.2.5-.5Zm72-.3c0 .3.2.7.7.9.4.2.8 0 1-.3 0-.3-.2-.7-.6-.9-.5-.1-.9 0-1 .3Zm47 4.3c-.4-.2-.7-1-1-2.2-.2-.2-.4-.4-.6-.3h-1.4c-.4-.2-.7 0-.9.4l-12.3 29.9c-.1.4.3.8.6.5a8.2 8.2 0 0 0 3-4.8c0-.3.2-.4.4-.3.6.4 1 .1 1.4-.8l-.1-.4c-.3-.3-.6-.3-1 .1-.1.2-.4 0-.3-.2.2-.7.6-1 .8-1.7.8-3.4 2.3-6.6 3.3-9.5l1.6-4.5c.5-1 1.5-1.5 1.2-2.8l.1-1.2 2.2-4.6h.3c.2.3.2.4.1.5l-.2.3c-.1.1 0 .4.1.4h1.2l1.4 1.5v-.3Zm-78.9-2.4c0-.2-.3-.2-.4 0-.1.8.1 1.4.7 1.7.2.1.5 0 .8-.2.1-.2 0-.4-.1-.5-.5-.2-.8-.5-1-1Zm25-.1c-.1 0-.3.3-.3.7 0 .4.2.8.4.8s.4-.4.4-.8-.2-.7-.4-.7Zm-71.9 1.2c0 .2 0 .4.2.4.3 0 .4 0 .6-.3 0-.2 0-.4-.2-.4-.3 0-.5.1-.6.3Zm202.1 1.3c0-.2-.3-.2-.6-.1s-.5.4-.4.6c0 .2.3.3.6.2.3-.2.5-.4.4-.7ZM86.7 118.3c0-1.2-.2-1.9-.6-2a1 1 0 0 1-.8-.7c-.6-1.5-.5-3 .2-4.2l.2-.4v-1c0-.6-.8-.8-1-.3l-1.5 4.5c0 .2 0 .5.2.7l2 2c.5.4.7 1.6 1 1.6 0 .1.3 0 .3-.2Zm-4-8c0-.4-.3-.8-.7-.8-.4 0-.7.4-.7.9 0 .4.3.8.7.8.4 0 .7-.4.7-.8Zm65.6.7c-.2-.1-.6 0-.8.4-.2.4-.3.8 0 1 .1.1.4 0 .7-.4.2-.4.3-.8 0-1Zm-46.2 2.9 1.7-1.8v-.2c-.5-.5-1.1-.5-1.6 0l-.2.2c-.4.5-.5 1.3-.1 1.7 0 .1.2.1.2 0Zm72.7-1.3c-.2 0-.4.2-.4.6 0 .3 0 .6.3.6.2 0 .4-.2.4-.5 0-.4 0-.7-.3-.7Zm-12 13.4c.3-2.1 1.9-2.3 2.4-3.5l2.8-3.8c.1-.1.2-.3.1-.5 0-.3-.1-.4-.3-.5-.4-.3-.5-1-.1-1.3l1-1.3c.1-.4 0-1-.2-1.3-.3-.2-.7-.2-.9.2l-5.4 11.8v.3l.2.1c.1.1.3 0 .3-.2Zm-57.5 3.8c0 .3-.4.3-.4 0-.4-1.6-.5-3.3-.3-5.1 0-.4.2-.7.4-1 .7-.8.8-1.7.3-2.8a.9.9 0 0 1 0-.7c.3-.4.4-.8.4-1 0-.3-.4-.4-.5-.1l-4.2 9.3.1.3 3.3 2h.5c.5 0 .9 0 1.2-.4.2-.3 0-.7-.3-.7s-.5 0-.5.2Zm-5.2-10.2c-.2 0-.4.2-.4.4 0 .3 0 .6.3.6.2 0 .3-.2.4-.4 0-.3-.1-.6-.3-.6Zm2 3.5c0-.5 0-.8-.2-1-.5-.5-1.2 0-1 .6l.9.7c.1 0 .4 0 .3-.3Zm3.5 1.1c-.2 0-.4.4-.4.8s.3.7.5.7.4-.4.4-.8-.3-.7-.5-.7Zm19.5 11.2 2-1.4.2-.4a8 8 0 0 0 .1-2.5c-.6-1.4.8-3.1-.7-5-.3-.4-.9-.1-.8.4.1.3.3.6.7.7.3.1.4.5.3.9l-2.5 6.7c-.2.4.3.9.7.6Zm113.7-7.7v.6c.2.2.4.3.5.2v-.5c-.1-.3-.3-.4-.5-.3ZM103.3 137c-.1.3 0 .7.2.9.3.2.7.2.8 0 .2-.3 0-.7-.2-.9-.3-.2-.6-.2-.8 0Zm-96.8 3.3c0 .6.5 1 1 .8l.1-.5c0-.4-.3-.6-.6-.6s-.4.2-.5.3Zm3.3 5.8c.2-.1.4-.3.4-.5s0-.3-.2-.3c-.3 0-.5 0-.6.2v.5c0 .2.3.2.4.1Zm-7.6.4c0-.3-.3-.5-.7-.5-.3 0-.6.2-.6.5s.2.5.6.6c.4 0 .7-.3.7-.6Zm34 9c0 .2.2.5.5.5s.5-.3.5-.5c0-.3-.2-.5-.5-.5s-.6.2-.6.5Zm-7 9.8c-.2-.4-.5-.7-.7-.8-.4 0-.7.5-.4.8 0 .1.4.3.9.4.2 0 .3-.2.2-.4Zm75.3 2.4c0 .2 0 .6.2 1 0 .2.3.2.4 0 .5-.4.7-.7.7-1 0-.2-.2-.5-.6-1-.1-.2-.4-.1-.5 0l-.2 1Zm-77 2.8c-.3 0-.4-.2-.4-.3l-.2-1c-.1-.1-.4-.2-.5 0-.6.6-.9 1.2-.8 1.8 0 .3.4.5.6.3l1.3-.6v-.2Zm-3.2 3.9c0-.2-.3 0-.3.1 0 .9.3 1.3.7 1.4.3 0 .5-.4.3-.7l-.7-.8Zm95.2 3.3-.5.7c0 .3 0 .5.3.6l1 .2.3-1.1c0-.3-.1-.5-.4-.5l-.7.1Zm.4 3.5a4 4 0 0 1-.7-1.5c-.1-.2-.3-.3-.5-.2l-.2.1c-.2.1-.3.4-.1.6l1 1.4.2.1h.2c.2 0 .3-.3.1-.5Zm-97.2 5.6c-.1-.1-.3.1-.4.5-.2.3-.2.6-.1.6l.4-.5v-.6Zm163.8 2.4c-.3.3-.1.8.2 1.2.4.3.9.4 1.1 0 .2-.2.1-.8-.2-1.1-.4-.4-.9-.4-1.1-.1Zm3.3 1.3v-.4c0-.3-.1-.4-.3-.3-.1 0-.2.2-.2.5 0 .2.3.4.5.2Zm-70.9 0c0-.3-.4-.4-1-.3-.4.1-.8.4-.8.6 0 .2.5.3 1 .2.5-.1.9-.4.8-.6Zm70.6 3-.7.8c0 .2 0 .2.2 0a5.4 5.4 0 0 0 1-1.4c.2-.2.1-.3 0-.2l-.5.9Zm-74.2 1.8c0 .2.2.5.5.7.3.2.7.2.8 0 0-.2-.1-.5-.5-.7-.3-.2-.7-.2-.8 0Zm3.5 4.6h.8c.1-.1.2-.4 0-.5-.3-.1-.6-.1-1 .2 0 0 0 .3.2.3Zm35.6.4.1-.3c0-.1-.1-.2-.2-.1l-.1.1c-.1.2 0 .4.2.3Zm-79.9 5c0-.3-.3-.4-.6-.3-.3.1-.5.4-.4.6 0 .2.3.3.6.2.3-.1.5-.4.4-.6Z" fill="#B8AFE6"/></g></svg>